<?xml version="1.0" encoding="UTF-8" standalone="no"?><svg xmlns="http://www.w3.org/2000/svg" xmlns:xlink="http://www.w3.org/1999/xlink" contentScriptType="application/ecmascript" contentStyleType="text/css" height="222px" preserveAspectRatio="none" style="width:349px;height:222px;" version="1.1" viewBox="0 0 349 222" width="349px" zoomAndPan="magnify"><defs><filter height="300%" id="fi78h4x278gfe" width="300%" x="-1" y="-1"><feGaussianBlur result="blurOut" stdDeviation="2.0"/><feColorMatrix in="blurOut" result="blurOut2" type="matrix" values="0 0 0 0 0 0 0 0 0 0 0 0 0 0 0 0 0 0 .4 0"/><feOffset dx="4.0" dy="4.0" in="blurOut2" result="blurOut3"/><feBlend in="SourceGraphic" in2="blurOut3" mode="normal"/></filter></defs><g><text fill="#000000" font-family="sans-serif" font-size="18" lengthAdjust="spacingAndGlyphs" textLength="265" x="41" y="27.4023">Waiting for Winter Tech Forum</text><ellipse cx="164.5" cy="41.1992" fill="#000000" filter="url(#fi78h4x278gfe)" rx="10" ry="10" style="stroke: none; stroke-width: 1.0;"/><polygon fill="#FEFECE" filter="url(#fi78h4x278gfe)" points="122.5,71.1992,206.5,71.1992,218.5,83.1992,206.5,95.1992,122.5,95.1992,110.5,83.1992,122.5,71.1992" style="stroke: #A80036; stroke-width: 1.5;"/><text fill="#000000" font-family="sans-serif" font-size="11" lengthAdjust="spacingAndGlyphs" textLength="84" x="122.5" y="87.3564">WTF in session?</text><text fill="#000000" font-family="sans-serif" font-size="11" lengthAdjust="spacingAndGlyphs" textLength="18" x="92.5" y="80.8789">yes</text><text fill="#000000" font-family="sans-serif" font-size="11" lengthAdjust="spacingAndGlyphs" textLength="14" x="218.5" y="80.8789">no</text><rect fill="#FEFECE" filter="url(#fi78h4x278gfe)" height="34.1328" rx="12.5" ry="12.5" style="stroke: #A80036; stroke-width: 1.5;" width="135" x="10" y="105.1992"/><text fill="#000000" font-family="sans-serif" font-size="12" lengthAdjust="spacingAndGlyphs" textLength="115" x="20" y="126.8008">Learn and have fun!</text><rect fill="#FEFECE" filter="url(#fi78h4x278gfe)" height="34.1328" rx="12.5" ry="12.5" style="stroke: #A80036; stroke-width: 1.5;" width="173" x="165" y="105.1992"/><text fill="#000000" font-family="sans-serif" font-size="12" lengthAdjust="spacingAndGlyphs" textLength="153" x="175" y="126.8008">Chat on WTF slack channel</text><polygon fill="#FEFECE" filter="url(#fi78h4x278gfe)" points="164.5,145.332,176.5,157.332,164.5,169.332,152.5,157.332,164.5,145.332" style="stroke: #A80036; stroke-width: 1.5;"/><ellipse cx="164.5" cy="200.332" fill="#FFFFFF" filter="url(#fi78h4x278gfe)" rx="11" ry="11" style="stroke: #000000; stroke-width: 1.0;"/><ellipse cx="164.5" cy="200.332" fill="#000000" rx="6" ry="6" style="stroke: #7F7F7F; stroke-width: 1.0;"/><line style="stroke: #A80036; stroke-width: 1.5;" x1="110.5" x2="77.5" y1="83.1992" y2="83.1992"/><line style="stroke: #A80036; stroke-width: 1.5;" x1="77.5" x2="77.5" y1="83.1992" y2="105.1992"/><polygon fill="#A80036" points="73.5,95.1992,77.5,105.1992,81.5,95.1992,77.5,99.1992" style="stroke: #A80036; stroke-width: 1.0;"/><line style="stroke: #A80036; stroke-width: 1.5;" x1="218.5" x2="251.5" y1="83.1992" y2="83.1992"/><line style="stroke: #A80036; stroke-width: 1.5;" x1="251.5" x2="251.5" y1="83.1992" y2="105.1992"/><polygon fill="#A80036" points="247.5,95.1992,251.5,105.1992,255.5,95.1992,251.5,99.1992" style="stroke: #A80036; stroke-width: 1.0;"/><line style="stroke: #A80036; stroke-width: 1.5;" x1="77.5" x2="77.5" y1="139.332" y2="157.332"/><line style="stroke: #A80036; stroke-width: 1.5;" x1="77.5" x2="152.5" y1="157.332" y2="157.332"/><polygon fill="#A80036" points="142.5,153.332,152.5,157.332,142.5,161.332,146.5,157.332" style="stroke: #A80036; stroke-width: 1.0;"/><line style="stroke: #A80036; stroke-width: 1.5;" x1="251.5" x2="251.5" y1="139.332" y2="157.332"/><line style="stroke: #A80036; stroke-width: 1.5;" x1="251.5" x2="176.5" y1="157.332" y2="157.332"/><polygon fill="#A80036" points="186.5,153.332,176.5,157.332,186.5,161.332,182.5,157.332" style="stroke: #A80036; stroke-width: 1.0;"/><line style="stroke: #A80036; stroke-width: 1.5;" x1="164.5" x2="164.5" y1="51.1992" y2="71.1992"/><polygon fill="#A80036" points="160.5,61.1992,164.5,71.1992,168.5,61.1992,164.5,65.1992" style="stroke: #A80036; stroke-width: 1.0;"/><line style="stroke: #A80036; stroke-width: 1.5;" x1="164.5" x2="164.5" y1="169.332" y2="189.332"/><polygon fill="#A80036" points="160.5,179.332,164.5,189.332,168.5,179.332,164.5,183.332" style="stroke: #A80036; stroke-width: 1.0;"/><!--MD5=[ed8f20ab6326f415394370f8fa0fe1b4]
@startuml

title Waiting for Winter Tech Forum

start

if (WTF in session?) then (yes)
  :Learn and have fun!;
else (no)
  :Chat on WTF slack channel;
endif

stop

@enduml

PlantUML version 1.2020.01(Sun Feb 16 10:40:32 MST 2020)
(GPL source distribution)
Java Runtime: OpenJDK Runtime Environment
JVM: OpenJDK 64-Bit Server VM
Java Version: 13.0.2+8
Operating System: Mac OS X
Default Encoding: UTF-8
Language: en
Country: US
--></g></svg>