<?xml version="1.0" encoding="UTF-8" standalone="no"?><svg xmlns="http://www.w3.org/2000/svg" xmlns:xlink="http://www.w3.org/1999/xlink" contentScriptType="application/ecmascript" contentStyleType="text/css" height="88px" preserveAspectRatio="none" style="width:455px;height:88px;" version="1.1" viewBox="0 0 455 88" width="455px" zoomAndPan="magnify"><defs><filter height="300%" id="f1qyb9n1g2agjy" width="300%" x="-1" y="-1"><feGaussianBlur result="blurOut" stdDeviation="2.0"/><feColorMatrix in="blurOut" result="blurOut2" type="matrix" values="0 0 0 0 0 0 0 0 0 0 0 0 0 0 0 0 0 0 .4 0"/><feOffset dx="4.0" dy="4.0" in="blurOut2" result="blurOut3"/><feBlend in="SourceGraphic" in2="blurOut3" mode="normal"/></filter></defs><g><text fill="#000000" font-family="sans-serif" font-size="18" lengthAdjust="spacingAndGlyphs" textLength="91" x="185.5" y="17.4023">Parish Hall</text><!--MD5=[b18f05fd29eb788017381e702a2a96b9]
class ParishHall--><rect fill="#FEFECE" filter="url(#f1qyb9n1g2agjy)" height="48" id="ParishHall" style="stroke: #A80036; stroke-width: 1.5;" width="89" x="151.5" y="29.1992"/><ellipse cx="166.5" cy="45.1992" fill="#ADD1B2" rx="11" ry="11" style="stroke: #A80036; stroke-width: 1.0;"/><path d="M168.9731,51.3423 Q168.3921,51.6411 167.7529,51.7905 Q167.1138,51.9399 166.4082,51.9399 Q163.9014,51.9399 162.5815,50.2881 Q161.2617,48.6362 161.2617,45.5151 Q161.2617,42.3857 162.5815,40.7339 Q163.9014,39.082 166.4082,39.082 Q167.1138,39.082 167.7612,39.2314 Q168.4087,39.3809 168.9731,39.6797 L168.9731,42.4023 Q168.3423,41.8213 167.7488,41.5515 Q167.1553,41.2817 166.5244,41.2817 Q165.1797,41.2817 164.4949,42.3484 Q163.8101,43.415 163.8101,45.5151 Q163.8101,47.6069 164.4949,48.6736 Q165.1797,49.7402 166.5244,49.7402 Q167.1553,49.7402 167.7488,49.4705 Q168.3423,49.2007 168.9731,48.6196 Z "/><text fill="#000000" font-family="sans-serif" font-size="12" lengthAdjust="spacingAndGlyphs" textLength="57" x="180.5" y="49.7344">ParishHall</text><line style="stroke: #A80036; stroke-width: 1.5;" x1="152.5" x2="239.5" y1="61.1992" y2="61.1992"/><line style="stroke: #A80036; stroke-width: 1.5;" x1="152.5" x2="239.5" y1="69.1992" y2="69.1992"/><!--MD5=[2e78737a3b658347b67b639d41ec5b51]
class Bruce--><rect fill="#FEFECE" filter="url(#f1qyb9n1g2agjy)" height="48" id="Bruce" style="stroke: #A80036; stroke-width: 1.5;" width="64" x="6" y="29.1992"/><ellipse cx="21" cy="45.1992" fill="#ADD1B2" rx="11" ry="11" style="stroke: #A80036; stroke-width: 1.0;"/><path d="M23.4731,51.3423 Q22.8921,51.6411 22.2529,51.7905 Q21.6138,51.9399 20.9082,51.9399 Q18.4014,51.9399 17.0815,50.2881 Q15.7617,48.6362 15.7617,45.5151 Q15.7617,42.3857 17.0815,40.7339 Q18.4014,39.082 20.9082,39.082 Q21.6138,39.082 22.2612,39.2314 Q22.9087,39.3809 23.4731,39.6797 L23.4731,42.4023 Q22.8423,41.8213 22.2488,41.5515 Q21.6553,41.2817 21.0244,41.2817 Q19.6797,41.2817 18.9949,42.3484 Q18.3101,43.415 18.3101,45.5151 Q18.3101,47.6069 18.9949,48.6736 Q19.6797,49.7402 21.0244,49.7402 Q21.6553,49.7402 22.2488,49.4705 Q22.8423,49.2007 23.4731,48.6196 Z "/><text fill="#000000" font-family="sans-serif" font-size="12" lengthAdjust="spacingAndGlyphs" textLength="32" x="35" y="49.7344">Bruce</text><line style="stroke: #A80036; stroke-width: 1.5;" x1="7" x2="69" y1="61.1992" y2="61.1992"/><line style="stroke: #A80036; stroke-width: 1.5;" x1="7" x2="69" y1="69.1992" y2="69.1992"/><!--MD5=[942d2a358f5560d360272911ddab4a74]
class MeetingRooms--><rect fill="#FEFECE" filter="url(#f1qyb9n1g2agjy)" height="48" id="MeetingRooms" style="stroke: #A80036; stroke-width: 1.5;" width="116" x="328" y="29.1992"/><ellipse cx="343" cy="45.1992" fill="#ADD1B2" rx="11" ry="11" style="stroke: #A80036; stroke-width: 1.0;"/><path d="M345.4731,51.3423 Q344.8921,51.6411 344.2529,51.7905 Q343.6138,51.9399 342.9082,51.9399 Q340.4014,51.9399 339.0815,50.2881 Q337.7617,48.6362 337.7617,45.5151 Q337.7617,42.3857 339.0815,40.7339 Q340.4014,39.082 342.9082,39.082 Q343.6138,39.082 344.2612,39.2314 Q344.9087,39.3809 345.4731,39.6797 L345.4731,42.4023 Q344.8423,41.8213 344.2488,41.5515 Q343.6553,41.2817 343.0244,41.2817 Q341.6797,41.2817 340.9949,42.3484 Q340.3101,43.415 340.3101,45.5151 Q340.3101,47.6069 340.9949,48.6736 Q341.6797,49.7402 343.0244,49.7402 Q343.6553,49.7402 344.2488,49.4705 Q344.8423,49.2007 345.4731,48.6196 Z "/><text fill="#000000" font-family="sans-serif" font-size="12" lengthAdjust="spacingAndGlyphs" textLength="84" x="357" y="49.7344">MeetingRooms</text><line style="stroke: #A80036; stroke-width: 1.5;" x1="329" x2="443" y1="61.1992" y2="61.1992"/><line style="stroke: #A80036; stroke-width: 1.5;" x1="329" x2="443" y1="69.1992" y2="69.1992"/><!--MD5=[6e83c41c73a4754d75b123898dc48a71]
link Bruce to ParishHall--><path d="M70.35,53.1992 C93.74,53.1992 125.62,53.1992 151.41,53.1992 " fill="none" id="Bruce-ParishHall" style="stroke: #A80036; stroke-width: 1.0;"/><text fill="#000000" font-family="sans-serif" font-size="13" lengthAdjust="spacingAndGlyphs" textLength="32" x="88.25" y="46.7676">rents</text><polygon fill="#000000" points="123.25,40.3545,129.25,43.3545,123.25,46.3545,123.25,40.3545" style="stroke: #000000; stroke-width: 1.0;"/><!--MD5=[35896ea210bb05d107749f55cfbd272f]
reverse link ParishHall to MeetingRooms--><path d="M253.86,53.1992 C277.27,53.1992 304.24,53.1992 327.69,53.1992 " fill="none" id="ParishHall&lt;-MeetingRooms" style="stroke: #A80036; stroke-width: 1.0;"/><polygon fill="#A80036" points="240.55,53.1992,246.55,57.1992,252.55,53.1992,246.55,49.1992,240.55,53.1992" style="stroke: #A80036; stroke-width: 1.0;"/><text fill="#000000" font-family="sans-serif" font-size="13" lengthAdjust="spacingAndGlyphs" textLength="38" x="258.75" y="46.7676">has  4</text><polygon fill="#000000" points="299.75,40.3545,305.75,43.3545,299.75,46.3545,299.75,40.3545" style="stroke: #000000; stroke-width: 1.0;"/><!--MD5=[d4477f4913cb6f71acf0d3f608b51860]
@startuml

title Parish Hall

class ParishHall

Bruce - ParishHall : rents >
ParishHall  *- MeetingRooms : has  4 >

@enduml

PlantUML version 1.2020.01(Sun Feb 16 10:40:32 MST 2020)
(GPL source distribution)
Java Runtime: OpenJDK Runtime Environment
JVM: OpenJDK 64-Bit Server VM
Java Version: 13.0.2+8
Operating System: Mac OS X
Default Encoding: UTF-8
Language: en
Country: US
--></g></svg>