<?xml version="1.0" encoding="UTF-8" standalone="no"?><svg xmlns="http://www.w3.org/2000/svg" xmlns:xlink="http://www.w3.org/1999/xlink" contentScriptType="application/ecmascript" contentStyleType="text/css" height="346px" preserveAspectRatio="none" style="width:426px;height:346px;" version="1.1" viewBox="0 0 426 346" width="426px" zoomAndPan="magnify"><defs><filter height="300%" id="f19gviuz0qxr6c" width="300%" x="-1" y="-1"><feGaussianBlur result="blurOut" stdDeviation="2.0"/><feColorMatrix in="blurOut" result="blurOut2" type="matrix" values="0 0 0 0 0 0 0 0 0 0 0 0 0 0 0 0 0 0 .4 0"/><feOffset dx="4.0" dy="4.0" in="blurOut2" result="blurOut3"/><feBlend in="SourceGraphic" in2="blurOut3" mode="normal"/></filter></defs><g><text fill="#000000" font-family="sans-serif" font-size="18" lengthAdjust="spacingAndGlyphs" textLength="157" x="135.5" y="27.4023">Do NOT kick cats!</text><line style="stroke: #A80036; stroke-width: 1.0; stroke-dasharray: 5.0,5.0;" x1="48" x2="48" y1="121.6875" y2="258.9297"/><line style="stroke: #A80036; stroke-width: 1.0; stroke-dasharray: 5.0,5.0;" x1="144" x2="144" y1="121.6875" y2="258.9297"/><line style="stroke: #A80036; stroke-width: 1.0; stroke-dasharray: 5.0,5.0;" x1="267" x2="267" y1="121.6875" y2="258.9297"/><line style="stroke: #A80036; stroke-width: 1.0; stroke-dasharray: 5.0,5.0;" x1="382" x2="382" y1="121.6875" y2="258.9297"/><text fill="#000000" font-family="sans-serif" font-size="14" lengthAdjust="spacingAndGlyphs" textLength="74" x="8" y="118.7344">Angry Man</text><ellipse cx="48" cy="48.1992" fill="#FEFECE" filter="url(#f19gviuz0qxr6c)" rx="8" ry="8" style="stroke: #A80036; stroke-width: 2.0;"/><path d="M48,56.1992 L48,83.1992 M35,64.1992 L61,64.1992 M48,83.1992 L35,98.1992 M48,83.1992 L61,98.1992 " fill="none" filter="url(#f19gviuz0qxr6c)" style="stroke: #A80036; stroke-width: 2.0;"/><text fill="#000000" font-family="sans-serif" font-size="14" lengthAdjust="spacingAndGlyphs" textLength="74" x="8" y="271.4648">Angry Man</text><ellipse cx="48" cy="284.418" fill="#FEFECE" filter="url(#f19gviuz0qxr6c)" rx="8" ry="8" style="stroke: #A80036; stroke-width: 2.0;"/><path d="M48,292.418 L48,319.418 M35,300.418 L61,300.418 M48,319.418 L35,334.418 M48,319.418 L61,334.418 " fill="none" filter="url(#f19gviuz0qxr6c)" style="stroke: #A80036; stroke-width: 2.0;"/><text fill="#000000" font-family="sans-serif" font-size="14" lengthAdjust="spacingAndGlyphs" textLength="87" x="98" y="118.7344">Innocent Cat</text><ellipse cx="144.5" cy="48.1992" fill="#FEFECE" filter="url(#f19gviuz0qxr6c)" rx="8" ry="8" style="stroke: #A80036; stroke-width: 2.0;"/><path d="M144.5,56.1992 L144.5,83.1992 M131.5,64.1992 L157.5,64.1992 M144.5,83.1992 L131.5,98.1992 M144.5,83.1992 L157.5,98.1992 " fill="none" filter="url(#f19gviuz0qxr6c)" style="stroke: #A80036; stroke-width: 2.0;"/><text fill="#000000" font-family="sans-serif" font-size="14" lengthAdjust="spacingAndGlyphs" textLength="87" x="98" y="271.4648">Innocent Cat</text><ellipse cx="144.5" cy="284.418" fill="#FEFECE" filter="url(#f19gviuz0qxr6c)" rx="8" ry="8" style="stroke: #A80036; stroke-width: 2.0;"/><path d="M144.5,292.418 L144.5,319.418 M131.5,300.418 L157.5,300.418 M144.5,319.418 L131.5,334.418 M144.5,319.418 L157.5,334.418 " fill="none" filter="url(#f19gviuz0qxr6c)" style="stroke: #A80036; stroke-width: 2.0;"/><text fill="#000000" font-family="sans-serif" font-size="14" lengthAdjust="spacingAndGlyphs" textLength="127" x="201" y="118.7344">Concerned Citizen</text><ellipse cx="267.5" cy="48.1992" fill="#FEFECE" filter="url(#f19gviuz0qxr6c)" rx="8" ry="8" style="stroke: #A80036; stroke-width: 2.0;"/><path d="M267.5,56.1992 L267.5,83.1992 M254.5,64.1992 L280.5,64.1992 M267.5,83.1992 L254.5,98.1992 M267.5,83.1992 L280.5,98.1992 " fill="none" filter="url(#f19gviuz0qxr6c)" style="stroke: #A80036; stroke-width: 2.0;"/><text fill="#000000" font-family="sans-serif" font-size="14" lengthAdjust="spacingAndGlyphs" textLength="127" x="201" y="271.4648">Concerned Citizen</text><ellipse cx="267.5" cy="284.418" fill="#FEFECE" filter="url(#f19gviuz0qxr6c)" rx="8" ry="8" style="stroke: #A80036; stroke-width: 2.0;"/><path d="M267.5,292.418 L267.5,319.418 M254.5,300.418 L280.5,300.418 M267.5,319.418 L254.5,334.418 M267.5,319.418 L280.5,334.418 " fill="none" filter="url(#f19gviuz0qxr6c)" style="stroke: #A80036; stroke-width: 2.0;"/><text fill="#000000" font-family="sans-serif" font-size="14" lengthAdjust="spacingAndGlyphs" textLength="70" x="344" y="118.7344">Policeman</text><ellipse cx="382" cy="48.1992" fill="#FEFECE" filter="url(#f19gviuz0qxr6c)" rx="8" ry="8" style="stroke: #A80036; stroke-width: 2.0;"/><path d="M382,56.1992 L382,83.1992 M369,64.1992 L395,64.1992 M382,83.1992 L369,98.1992 M382,83.1992 L395,98.1992 " fill="none" filter="url(#f19gviuz0qxr6c)" style="stroke: #A80036; stroke-width: 2.0;"/><text fill="#000000" font-family="sans-serif" font-size="14" lengthAdjust="spacingAndGlyphs" textLength="70" x="344" y="271.4648">Policeman</text><ellipse cx="382" cy="284.418" fill="#FEFECE" filter="url(#f19gviuz0qxr6c)" rx="8" ry="8" style="stroke: #A80036; stroke-width: 2.0;"/><path d="M382,292.418 L382,319.418 M369,300.418 L395,300.418 M382,319.418 L369,334.418 M382,319.418 L395,334.418 " fill="none" filter="url(#f19gviuz0qxr6c)" style="stroke: #A80036; stroke-width: 2.0;"/><polygon fill="#A80036" points="132.5,148.998,142.5,152.998,132.5,156.998,136.5,152.998" style="stroke: #A80036; stroke-width: 1.0;"/><line style="stroke: #A80036; stroke-width: 1.0;" x1="48" x2="138.5" y1="152.998" y2="152.998"/><text fill="#000000" font-family="sans-serif" font-size="13" lengthAdjust="spacingAndGlyphs" textLength="34" x="55" y="148.2559">kicks</text><polygon fill="#A80036" points="59,178.3086,49,182.3086,59,186.3086,55,182.3086" style="stroke: #A80036; stroke-width: 1.0;"/><line style="stroke: #A80036; stroke-width: 1.0;" x1="53" x2="266.5" y1="182.3086" y2="182.3086"/><text fill="#000000" font-family="sans-serif" font-size="13" lengthAdjust="spacingAndGlyphs" textLength="56" x="65" y="177.5664">observes</text><polygon fill="#A80036" points="370,207.6191,380,211.6191,370,215.6191,374,211.6191" style="stroke: #A80036; stroke-width: 1.0;"/><line style="stroke: #A80036; stroke-width: 1.0;" x1="267.5" x2="376" y1="211.6191" y2="211.6191"/><text fill="#000000" font-family="sans-serif" font-size="13" lengthAdjust="spacingAndGlyphs" textLength="45" x="274.5" y="206.877">reports</text><polygon fill="#A80036" points="59,236.9297,49,240.9297,59,244.9297,55,240.9297" style="stroke: #A80036; stroke-width: 1.0;"/><line style="stroke: #A80036; stroke-width: 1.0;" x1="53" x2="381" y1="240.9297" y2="240.9297"/><text fill="#000000" font-family="sans-serif" font-size="13" lengthAdjust="spacingAndGlyphs" textLength="43" x="65" y="236.1875">arrests</text><!--MD5=[18573a75f54378f48235229468c6743c]
@startuml

title Do NOT kick cats!

actor "Angry Man" as perp
actor "Innocent Cat" as cat
actor "Concerned Citizen" as citizen
actor "Policeman" as popo

perp -> cat : kicks
citizen -> perp : observes
citizen -> popo : reports
popo -> perp : arrests

@enduml

PlantUML version 1.2020.01(Sun Feb 16 10:40:32 MST 2020)
(GPL source distribution)
Java Runtime: OpenJDK Runtime Environment
JVM: OpenJDK 64-Bit Server VM
Java Version: 13.0.2+8
Operating System: Mac OS X
Default Encoding: UTF-8
Language: en
Country: US
--></g></svg>